<svg width="129" height="34" viewBox="0 0 129 34" fill="none" xmlns="http://www.w3.org/2000/svg">
<path d="M3.56579 14.7479L15.1918 19.3429V22.9028L0 16.0192V13.3675L15.1918 6.50214V10.062L3.56579 14.7479Z" fill="#2563EB"/>
<path d="M36.0851 19.5427H24.7563L22.2119 26.4444H18.5347L28.8606 0H31.9807L42.3252 26.4444H38.6666L36.0851 19.5427ZM25.8334 16.6731H35.0265L30.4207 4.30449L25.8334 16.6731Z" fill="#2563EB"/>
<path d="M62.4014 16.8365C62.4014 19.8273 61.7018 22.2368 60.3028 24.0652C58.9037 25.8935 57.0094 26.8077 54.6198 26.8077C52.1807 26.8077 50.2616 26.0509 48.8625 24.5374V34H45.4267V6.79274H48.5654L48.7325 8.97222C50.1316 7.27707 52.0754 6.42949 54.5641 6.42949C56.9784 6.42949 58.8851 7.31944 60.2842 9.09936C61.6957 10.8793 62.4014 13.3554 62.4014 16.5278V16.8365ZM58.9656 16.4551C58.9656 14.2393 58.4827 12.4897 57.517 11.2062C56.5513 9.92272 55.2265 9.28098 53.5426 9.28098C51.4626 9.28098 49.9025 10.183 48.8625 11.9872V21.3771C49.8902 23.1692 51.4626 24.0652 53.5798 24.0652C55.2265 24.0652 56.5327 23.4295 57.4984 22.1581C58.4765 20.8746 58.9656 18.9736 58.9656 16.4551Z" fill="#2563EB"/>
<path d="M83.759 16.8365C83.759 19.8273 83.0595 22.2368 81.6604 24.0652C80.2613 25.8935 78.367 26.8077 75.9774 26.8077C73.5383 26.8077 71.6192 26.0509 70.2201 24.5374V34H66.7843V6.79274H69.923L70.0901 8.97222C71.4892 7.27707 73.4331 6.42949 75.9217 6.42949C78.336 6.42949 80.2427 7.31944 81.6418 9.09936C83.0533 10.8793 83.759 13.3554 83.759 16.5278V16.8365ZM80.3232 16.4551C80.3232 14.2393 79.8403 12.4897 78.8746 11.2062C77.9089 9.92272 76.5841 9.28098 74.9002 9.28098C72.8202 9.28098 71.2602 10.183 70.2201 11.9872V21.3771C71.2478 23.1692 72.8202 24.0652 74.9374 24.0652C76.5841 24.0652 77.8903 23.4295 78.856 22.1581C79.8342 20.8746 80.3232 18.9736 80.3232 16.4551Z" fill="#2563EB"/>
<path d="M98.2636 28.7147H95.3107L106.602 0H109.537L98.2636 28.7147Z" fill="#2563EB"/>
<path d="M125.416 14.6389L113.14 9.93483V6.48397L129 13.3494V16.0011L113.14 22.8846V19.3974L125.416 14.6389Z" fill="#2563EB"/>
</svg>
