<svg width="366" height="319" viewBox="0 0 366 319" fill="none" xmlns="http://www.w3.org/2000/svg">
<circle cx="43.6412" cy="58.6411" r="41.911" transform="rotate(126.639 43.6412 58.6411)" fill="url(#paint0_linear)" fill-opacity="0.5"/>
<circle cx="345.5" cy="298.5" r="20.5" fill="url(#paint1_linear)" fill-opacity="0.5"/>
<path fill-rule="evenodd" clip-rule="evenodd" d="M134.216 150.72C134.67 150.72 135.038 151.086 135.038 151.538C135.038 151.973 134.696 152.329 134.264 152.354L134.216 152.355H83.4265C63.0364 152.355 46.484 168.609 46.155 188.802L46.15 189.415V283.646C46.15 284.097 45.7819 284.463 45.3278 284.463C44.8899 284.463 44.5319 284.123 44.5069 283.694L44.5055 283.646V189.415C44.5055 168.25 61.5755 151.067 82.7826 150.725L83.4265 150.72H134.216Z" fill="#1E3A8A"/>
<path fill-rule="evenodd" clip-rule="evenodd" d="M153.118 144.711C153.565 144.63 153.993 144.925 154.074 145.369C154.155 145.813 153.859 146.239 153.412 146.32C140.109 148.725 131.999 152.847 128.508 158.357C125.539 163.043 125.93 168.746 129.221 175.231C129.426 175.635 129.262 176.127 128.856 176.33C123.587 178.957 118.026 182.359 112.332 186.644C105.179 192.027 98.2443 198.489 91.6996 206.132C91.4053 206.475 90.8863 206.517 90.5405 206.224C90.1947 205.932 90.153 205.416 90.4474 205.072C97.0708 197.337 104.093 190.793 111.34 185.34C116.755 181.265 122.056 177.975 127.111 175.379L127.391 175.235L127.345 175.137C124.23 168.585 123.933 162.643 127.018 157.643L127.116 157.485C130.9 151.513 139.405 147.19 153.118 144.711Z" fill="#1E3A8A"/>
<path fill-rule="evenodd" clip-rule="evenodd" d="M201.945 146.327C202.145 145.922 202.638 145.754 203.046 145.953C208.398 148.562 211.956 152.304 214.011 157.013C215.577 160.601 216.211 164.523 216.225 169.082L216.225 169.209L216.353 169.31C230.775 180.687 242.32 193.335 251.233 206.948L251.505 207.365C251.751 207.745 251.642 208.251 251.26 208.496C250.879 208.741 250.37 208.632 250.124 208.253C241.181 194.492 229.526 181.717 214.892 170.246C214.693 170.09 214.577 169.851 214.579 169.599C214.612 165.022 214.024 161.149 212.502 157.664C210.602 153.309 207.32 149.857 202.322 147.421C201.914 147.223 201.745 146.733 201.945 146.327Z" fill="#1E3A8A"/>
<path fill-rule="evenodd" clip-rule="evenodd" d="M85.9131 282.337C86.0648 281.912 86.5348 281.689 86.9628 281.84C89.0434 282.573 91.0935 282.966 92.949 282.992C93.4031 282.998 93.766 283.369 93.7596 283.821C93.7532 284.272 93.3799 284.633 92.9258 284.627C90.8831 284.598 88.6568 284.171 86.4134 283.381C85.9854 283.23 85.7614 282.763 85.9131 282.337Z" fill="#1E3A8A"/>
<path fill-rule="evenodd" clip-rule="evenodd" d="M69.7097 238.723C69.854 238.295 70.3201 238.064 70.7507 238.208C71.1812 238.351 71.4133 238.815 71.2689 239.243C69.7325 243.799 68.9024 248.168 68.7345 252.314C68.7162 252.765 68.3335 253.116 67.8798 253.098C67.426 253.08 67.073 252.699 67.0913 252.248C67.2656 247.945 68.1247 243.424 69.7097 238.723Z" fill="#1E3A8A"/>
<path fill-rule="evenodd" clip-rule="evenodd" d="M195.804 250.455C193.885 233.533 192.515 212.905 195.804 203.394C201.862 185.845 197.695 168.106 193.611 164.917C191.556 162.874 194.708 173.365 179.359 189.987C162.913 170.912 146.687 161.566 146.687 161.566L140.766 167.615C140.766 167.615 168.943 188.925 178.098 240.236C178.536 242.743 178.947 245.087 179.304 247.24" fill="#F97316"/>
<path fill-rule="evenodd" clip-rule="evenodd" d="M153.457 145.216L153.506 145.217C153.943 145.243 154.28 145.604 154.279 146.034L154.278 146.082L153.702 155.728C153.692 155.889 153.636 156.042 153.539 156.17L153.501 156.217L148.536 161.879L149.007 162.188C149.269 162.361 149.547 162.546 149.84 162.743L150.366 163.1L150.852 163.434C152.815 164.788 154.975 166.362 157.288 168.15C164.443 173.681 171.597 180.117 178.276 187.392C178.609 187.755 178.94 188.119 179.269 188.484L179.634 188.891L179.674 188.845C180.157 188.283 180.692 187.626 181.268 186.875L181.401 186.7C183.195 184.34 184.991 181.595 186.667 178.495C188.738 174.666 190.479 170.561 191.782 166.21C191.911 165.778 192.369 165.531 192.804 165.66C193.239 165.789 193.487 166.244 193.358 166.677C192.022 171.139 190.238 175.345 188.116 179.27C186.398 182.447 184.556 185.262 182.713 187.686C182.113 188.476 181.551 189.172 181.041 189.771L180.924 189.907C180.761 190.097 180.613 190.265 180.482 190.411L180.229 190.686C179.896 191.035 179.334 191.025 179.015 190.663C178.371 189.935 177.72 189.212 177.062 188.495C170.585 181.439 163.653 175.179 156.712 169.777L156.278 169.441C153.895 167.598 151.676 165.986 149.674 164.612L149.108 164.226C148.573 163.863 148.086 163.541 147.652 163.259L147.173 162.95L146.857 162.751C146.441 162.495 146.343 161.939 146.637 161.559L146.67 161.519L152.077 155.352L152.636 145.985C152.661 145.566 152.998 145.24 153.409 145.217L153.457 145.216Z" fill="#1E3A8A"/>
<path fill-rule="evenodd" clip-rule="evenodd" d="M178.577 247.257C178.658 246.813 179.086 246.518 179.533 246.599L180.674 246.806C186.133 247.804 191.69 248.914 196.042 249.904C196.485 250.004 196.762 250.443 196.66 250.883C196.559 251.323 196.118 251.598 195.675 251.497L195.077 251.362C190.536 250.344 184.79 249.208 179.239 248.208C178.792 248.127 178.496 247.702 178.577 247.257Z" fill="#1E3A8A"/>
<path fill-rule="evenodd" clip-rule="evenodd" d="M195.058 250.515C195.161 250.075 195.603 249.802 196.045 249.904L197.115 250.155C201.723 251.249 204.434 252.08 205.402 252.802L205.515 252.889C207.212 254.203 211.202 257.918 214.899 261.623L215.7 262.43C219.883 266.666 222.477 269.656 222.726 270.791C223.093 272.373 221.877 273.621 220.086 273.824C218.721 273.978 217.206 273.542 215.833 272.563L215.707 272.472L215.924 272.757C216.444 273.448 216.786 273.955 216.935 274.267L216.95 274.3C217.613 275.812 216.258 277.428 214.288 277.51C212.572 277.582 210.606 276.614 208.555 274.561L208.397 274.401L208.433 274.461C208.694 274.902 208.889 275.263 209.014 275.538L209.061 275.645C209.426 276.511 209.121 277.419 208.336 277.951C207.63 278.43 206.625 278.556 205.539 278.3C203.126 277.73 200.587 275.444 198.364 271.449L198.316 271.362L178.034 270.483C177.597 270.464 177.254 270.109 177.248 269.679L177.249 269.631C177.268 269.196 177.625 268.855 178.058 268.849L178.106 268.85L198.855 269.749C199.147 269.762 199.41 269.927 199.546 270.184C201.63 274.109 203.93 276.239 205.92 276.709C207.113 276.991 207.682 276.605 207.544 276.277C207.245 275.568 206.077 273.725 204.344 271.187L204.052 270.76C203.353 269.741 202.609 268.677 201.861 267.617L201.004 266.411L200.398 265.565C199.995 265.005 200.425 264.231 201.116 264.273C201.886 264.319 203.632 265.975 207.569 270.891L208.208 271.695C210.547 274.646 212.666 275.942 214.219 275.877C215.136 275.839 215.592 275.294 215.447 274.962L215.424 274.915C215.093 274.269 213.319 272.043 210.689 268.94L210.371 268.565L209.675 267.748C208.97 266.924 208.242 266.079 207.507 265.234L206.352 263.908L205.136 262.521C204.454 261.75 205.528 260.703 206.286 261.359L206.321 261.39L215.851 270.429C217.16 271.752 218.669 272.339 219.899 272.199C220.812 272.096 221.24 271.658 221.121 271.149C220.776 269.573 208.308 257.055 204.41 254.107L204.354 254.067C203.508 253.498 200.485 252.612 195.672 251.497C195.23 251.394 194.955 250.955 195.058 250.515Z" fill="#1E3A8A"/>
<path fill-rule="evenodd" clip-rule="evenodd" d="M142.66 243.459L145.856 243.136C159.513 241.769 168.406 241.055 170.689 241.248C173.318 241.484 174.593 242.349 175.97 244.265L176.222 244.621C177.184 245.988 177.735 246.46 178.975 246.711L179.886 246.898C181.228 247.175 182.318 247.411 183.178 247.608L183.73 247.737L184.184 247.847C184.274 247.87 184.335 247.885 184.37 247.895C184.823 248.017 185.078 248.488 184.94 248.926L184.836 249.218L184.771 249.404C184.715 249.566 184.655 249.746 184.592 249.942C184.337 250.729 184.083 251.613 183.845 252.572C183.042 255.811 182.625 259.079 182.799 262.108C182.959 264.904 183.62 267.329 184.852 269.288C185.055 269.61 185.007 270.03 184.737 270.299L184.689 270.344C184.626 270.403 184.535 270.48 184.414 270.574C184.173 270.762 183.871 270.972 183.502 271.199C182.514 271.808 181.217 272.444 179.57 273.081L179.378 273.155C178.233 273.591 177.761 274.115 177.076 275.5L176.808 276.054L176.703 276.263C175.705 278.218 174.553 279.253 172.081 279.887L171.966 279.915C169.994 280.382 163.622 281.049 153.704 281.882L151.034 282.103C149.362 282.24 147.615 282.38 145.801 282.522L143.501 282.701C139.119 283.04 134.541 283.379 129.933 283.709L125.606 284.017L120.556 284.367L119.169 284.461C118.716 284.492 118.323 284.151 118.293 283.701C118.263 283.267 118.581 282.888 119.01 282.835L124.401 282.462L127.374 282.253C132.798 281.868 138.223 281.469 143.373 281.071L146.653 280.815C148.603 280.661 150.472 280.51 152.249 280.363L154.744 280.153C164.035 279.362 170.047 278.719 171.671 278.303C173.674 277.79 174.471 277.059 175.284 275.43L175.604 274.772C176.44 273.084 177.145 272.277 178.69 271.667L178.79 271.628C180.434 271.002 181.7 270.386 182.636 269.81C182.777 269.723 182.905 269.64 183.021 269.561L183.083 269.519L183.008 269.381C181.934 267.377 181.342 265.029 181.169 262.409L181.157 262.201C180.973 258.987 181.409 255.565 182.248 252.18C182.475 251.266 182.716 250.417 182.959 249.649L183.083 249.264L182.345 249.096C181.375 248.879 180.151 248.619 178.646 248.313C176.973 247.974 176.127 247.296 175.021 245.763L174.695 245.304C173.545 243.679 172.671 243.068 170.545 242.877C168.356 242.692 158.909 243.462 144.741 244.892L142.182 245.152C141.749 245.196 141.313 245.241 140.875 245.286C136.736 245.713 132.486 246.164 128.282 246.62L123.876 247.102L118.274 247.725C117.823 247.776 117.416 247.454 117.364 247.005C117.315 246.573 117.614 246.181 118.04 246.107L118.125 246.096L123.082 245.544C123.688 245.477 124.314 245.408 124.959 245.338C129.655 244.823 134.459 244.308 139.147 243.821L140.705 243.66C141.363 243.592 142.015 243.525 142.66 243.459Z" fill="#1E3A8A"/>
<path fill-rule="evenodd" clip-rule="evenodd" d="M120.57 232.772C120.614 232.322 121.017 231.994 121.469 232.038L121.541 232.046C121.662 232.061 121.836 232.089 122.055 232.133C122.49 232.221 122.97 232.35 123.485 232.526C124.947 233.026 126.407 233.811 127.769 234.942C130.5 237.21 132.475 240.567 133.378 245.176C133.465 245.619 133.174 246.048 132.728 246.135C132.283 246.221 131.851 245.932 131.764 245.489C130.932 241.246 129.153 238.222 126.714 236.196C125.515 235.2 124.231 234.51 122.95 234.072C122.504 233.92 122.093 233.81 121.727 233.736L121.555 233.703C121.504 233.694 121.46 233.686 121.422 233.68L121.308 233.665C120.856 233.621 120.525 233.221 120.57 232.772Z" fill="#1E3A8A"/>
<path fill-rule="evenodd" clip-rule="evenodd" d="M179.715 272.937C183.881 271.383 185.224 270.13 185.224 270.13C179.824 261.737 185.224 247.867 185.224 247.867C185.224 247.867 183.799 247.485 179.441 246.613C177.686 246.259 176.755 245.36 176.014 244.351C167.052 254.461 172.534 272.174 174.918 278.605C177.029 276.779 176.563 274.136 179.715 272.937Z" fill="#1E3A8A"/>
<path fill-rule="evenodd" clip-rule="evenodd" d="M215.402 169.605L214.579 169.06C214.552 171.621 214.36 173.91 214.278 175.709C213.73 188.271 208.44 195.492 206 200.506C214.086 195.547 221.486 184.865 225.132 177.834C222.117 175.055 218.855 172.302 215.402 169.605Z" fill="#1E3A8A"/>
<path fill-rule="evenodd" clip-rule="evenodd" d="M156.033 203.258C151.703 201.269 135.586 187.862 128.926 174.728C124.595 176.88 118.455 181.022 112.096 185.764C116.783 188.434 143.754 203.504 156.116 203.395C156.088 203.34 156.061 203.286 156.033 203.258Z" fill="#1E3A8A"/>
<path fill-rule="evenodd" clip-rule="evenodd" d="M158.711 198.434C159.239 198.181 159.871 198.388 160.148 198.894L160.205 199.01L160.428 199.48L160.631 199.915C160.964 200.633 161.332 201.444 161.727 202.337L161.826 202.561C163.061 205.365 164.295 208.367 165.448 211.448C166.645 214.645 167.685 217.747 168.522 220.691C169.604 224.493 170.321 227.93 170.61 230.922C170.668 231.521 170.226 232.054 169.623 232.111C169.021 232.169 168.485 231.729 168.427 231.13C168.153 228.285 167.461 224.97 166.413 221.285C165.592 218.402 164.57 215.353 163.393 212.208C162.256 209.168 161.036 206.204 159.817 203.436L159.527 202.781C159.21 202.07 158.913 201.417 158.64 200.828L158.353 200.215L158.197 199.888C157.935 199.345 158.165 198.694 158.711 198.434Z" fill="#1E3A8A"/>
<path fill-rule="evenodd" clip-rule="evenodd" d="M201.588 199.172C202.159 199.303 202.522 199.857 202.42 200.424L202.28 201.057L202.149 201.663C202.081 201.984 202.009 202.33 201.934 202.701C201.576 204.469 201.217 206.421 200.883 208.499C200.143 213.095 199.627 217.631 199.436 221.864C199.286 225.193 199.343 228.222 199.635 230.881C199.7 231.479 199.266 232.017 198.664 232.082C198.062 232.148 197.521 231.715 197.455 231.117C197.15 228.337 197.091 225.199 197.246 221.766C197.441 217.442 197.966 212.826 198.718 208.154L198.846 207.37C199.126 205.684 199.421 204.086 199.716 202.609L199.784 202.27C199.861 201.893 199.934 201.54 200.004 201.213L200.18 200.399L200.273 199.988C200.409 199.401 200.998 199.036 201.588 199.172Z" fill="#1E3A8A"/>
<path fill-rule="evenodd" clip-rule="evenodd" d="M288.173 158.187H286.337C285.569 158.187 284.966 157.587 284.966 156.824V153.336C284.966 152.573 285.569 151.974 286.337 151.974H288.173C288.94 151.974 289.543 152.573 289.543 153.336V156.824C289.543 157.587 288.94 158.187 288.173 158.187Z" fill="#F97316"/>
<path fill-rule="evenodd" clip-rule="evenodd" d="M281.841 158.187H253.171C252.404 158.187 251.801 157.587 251.801 156.824V153.336C251.801 152.573 252.404 151.974 253.171 151.974H281.841C282.609 151.974 283.212 152.573 283.212 153.336V156.824C283.212 157.587 282.609 158.187 281.841 158.187Z" fill="#1E3A8A"/>
<path fill-rule="evenodd" clip-rule="evenodd" d="M284.692 187.099H253.171C252.404 187.099 251.801 186.5 251.801 185.737V182.249C251.801 181.485 252.404 180.886 253.171 180.886H284.692C285.46 180.886 286.063 181.485 286.063 182.249V185.737C286.063 186.5 285.46 187.099 284.692 187.099Z" fill="#1E3A8A"/>
<path fill-rule="evenodd" clip-rule="evenodd" d="M312.238 177.48H261.833C261.065 177.48 260.462 176.88 260.462 176.117V172.629C260.462 171.866 261.065 171.267 261.833 171.267H312.238C313.006 171.267 313.609 171.866 313.609 172.629V176.117C313.609 176.88 312.978 177.48 312.238 177.48Z" fill="#F97316"/>
<path fill-rule="evenodd" clip-rule="evenodd" d="M343.923 177.48H317.967C317.199 177.48 316.596 176.88 316.596 176.117V172.629C316.596 171.866 317.199 171.267 317.967 171.267H343.923C344.691 171.267 345.294 171.866 345.294 172.629V176.117C345.294 176.88 344.663 177.48 343.923 177.48Z" fill="#F97316"/>
<path fill-rule="evenodd" clip-rule="evenodd" d="M353.626 167.861H351.79C351.022 167.861 350.419 167.261 350.419 166.498V163.01C350.419 162.247 351.022 161.648 351.79 161.648H353.626C354.393 161.648 354.996 162.247 354.996 163.01V166.498C354.996 167.234 354.393 167.861 353.626 167.861Z" fill="#1E3A8A"/>
<path fill-rule="evenodd" clip-rule="evenodd" d="M305.386 167.833H253.171C252.404 167.833 251.801 167.234 251.801 166.471V162.983C251.801 162.22 252.404 161.62 253.171 161.62H305.386C306.153 161.62 306.756 162.22 306.756 162.983V166.471C306.756 167.234 306.126 167.833 305.386 167.833Z" fill="#1E3A8A"/>
<path fill-rule="evenodd" clip-rule="evenodd" d="M321.612 158.187H292.942C292.175 158.187 291.572 157.587 291.572 156.824V153.336C291.572 152.573 292.175 151.974 292.942 151.974H321.612C322.38 151.974 322.983 152.573 322.983 153.336V156.824C322.983 157.587 322.352 158.187 321.612 158.187Z" fill="#1E3A8A"/>
<path fill-rule="evenodd" clip-rule="evenodd" d="M346.609 167.861H310.594C309.826 167.861 309.223 167.261 309.223 166.498V162.955C309.223 162.192 309.826 161.593 310.594 161.593H346.609C347.377 161.593 347.98 162.192 347.98 162.955V166.498C347.98 167.234 347.349 167.861 346.609 167.861Z" fill="#F97316"/>
<path fill-rule="evenodd" clip-rule="evenodd" d="M322.27 207.727H215.703C214.305 207.727 213.099 208.681 212.77 210.044L197.942 272.392H159.322C159.322 272.392 157.185 283.373 169.656 283.373C175.987 283.373 305.715 283.373 305.715 283.373C307.113 283.373 308.319 282.42 308.648 281.057L325.203 211.406C325.641 209.526 324.216 207.727 322.27 207.727ZM266.465 237.566C266.465 237.566 262.545 239.119 261.257 234.541C261.257 234.541 266.163 233.369 266.465 237.566ZM270.384 255.115C267.287 258.385 262.189 259.366 259.01 257.295C255.83 255.224 255.748 250.864 258.845 247.594C260.27 246.068 262.134 245.06 264.025 244.597C263.779 244.161 263.614 243.643 263.614 243.043C263.614 241.218 264.985 239.474 266.684 239.174C266.712 239.174 266.739 239.174 266.766 239.174C267.205 237.839 268.109 235.332 268.987 234.296C269.288 233.942 269.809 233.915 270.138 234.214C270.494 234.514 270.521 235.032 270.22 235.359C269.617 236.067 268.877 238.057 268.411 239.446C269.233 239.882 269.781 240.809 269.781 241.926C269.781 242.962 269.343 243.943 268.658 244.678C269.206 244.869 269.754 245.087 270.22 245.414C273.399 247.485 273.482 251.845 270.384 255.115Z" fill="#1E3A8A"/>
<path fill-rule="evenodd" clip-rule="evenodd" d="M60.348 253.316C55.8824 253.316 52.2623 256.916 52.2623 261.355C52.2623 265.795 55.8824 269.394 60.348 269.394C64.8136 269.394 68.4337 265.795 68.4337 261.355C68.4337 256.916 64.8136 253.316 60.348 253.316ZM60.3481 254.952C63.9054 254.952 66.7892 257.819 66.7892 261.355C66.7892 264.892 63.9054 267.759 60.3481 267.759C56.7907 267.759 53.9069 264.892 53.9069 261.355C53.9069 257.819 56.7907 254.952 60.3481 254.952Z" fill="#1E3A8A"/>
<path fill-rule="evenodd" clip-rule="evenodd" d="M62.2393 251.545V274.926C62.2393 279.449 65.9121 283.101 70.462 283.101H84.331C88.881 283.101 92.5538 279.449 92.5538 274.926V251.545H62.2393ZM74.4912 268.685C74.683 268.822 74.7653 268.958 74.7653 269.176C74.7653 269.339 74.7104 269.448 74.6008 269.557C74.4912 269.666 74.3541 269.721 74.2171 269.721C74.1074 269.721 74.0252 269.694 73.943 269.639L68.4612 266.369C68.2693 266.233 68.1597 266.069 68.1597 265.879C68.1597 265.688 68.2693 265.524 68.4612 265.388L73.943 262.118C74.0252 262.064 74.1074 262.037 74.2171 262.037C74.3815 262.037 74.4912 262.091 74.6008 262.2C74.7104 262.309 74.7653 262.445 74.7653 262.582C74.7653 262.772 74.683 262.936 74.4912 263.072L69.7768 265.879L74.4912 268.685ZM81.3434 260.62L76.9305 271.574C76.9031 271.628 76.8757 271.683 76.8209 271.737C76.7113 271.846 76.5742 271.901 76.4372 271.901C76.3001 271.901 76.1631 271.846 76.0534 271.737C75.9438 271.628 75.889 271.492 75.889 271.356C75.889 271.274 75.9164 271.192 75.9438 271.111L80.3567 260.156C80.3841 260.102 80.4115 260.047 80.4663 259.993C80.576 259.884 80.713 259.829 80.8501 259.829C80.9871 259.829 81.1241 259.884 81.2338 259.993C81.3434 260.102 81.3982 260.238 81.3982 260.374C81.3982 260.456 81.3708 260.538 81.3434 260.62ZM88.7987 266.342L83.3169 269.612C83.2346 269.666 83.1524 269.694 83.0428 269.694C82.8783 269.694 82.7687 269.639 82.659 269.53C82.5494 269.421 82.4946 269.285 82.4946 269.149C82.4946 268.958 82.5768 268.794 82.7687 268.658L87.4831 265.851L82.7687 263.045C82.5768 262.908 82.4946 262.772 82.4946 262.554C82.4946 262.391 82.5494 262.282 82.659 262.173C82.7687 262.064 82.9057 262.009 83.0428 262.009C83.1524 262.009 83.2346 262.036 83.3169 262.091L88.7987 265.361C88.9906 265.497 89.1002 265.661 89.1002 265.851C89.1276 266.069 89.018 266.233 88.7987 266.342Z" fill="#1E3A8A"/>
<path fill-rule="evenodd" clip-rule="evenodd" d="M79.5718 197.071C80.111 198.746 79.8257 201.015 78.2067 204.016C77.2764 205.753 76.1265 206.862 73.6937 208.608L72.3586 209.556L72.2234 209.653C70.2056 211.106 68.9145 212.254 67.7504 213.796C66.2775 215.747 65.2591 218.112 64.6927 221.12C63.7186 226.294 66.2047 233.62 70.3489 239.934C72.0823 242.575 73.8782 244.627 75.2607 245.516C77.2193 246.776 78.6209 245.745 78.3797 243.159C78.038 239.493 78.2595 237.129 78.9809 235.588C79.5288 234.417 80.2865 233.738 81.8877 232.828L83.1245 232.143L83.4239 231.974C83.7603 231.783 84.0553 231.607 84.3469 231.424C85.3133 230.815 86.1573 230.166 86.9628 229.377C89.319 227.068 91.1896 223.675 92.659 218.58C94.254 212.43 93.1121 207.132 89.8946 202.682C87.6841 199.625 84.7579 197.286 81.6867 195.59L81.4837 195.479C80.4171 194.914 79.2175 195.944 79.5718 197.071ZM81.319 197.263L81.4678 197.349C84.1318 198.907 86.648 200.993 88.5593 203.637C91.5005 207.705 92.5357 212.507 91.0723 218.151C89.6821 222.97 87.9475 226.116 85.8084 228.212C85.0919 228.914 84.3396 229.493 83.4673 230.042C83.1587 230.236 82.8425 230.423 82.4644 230.636L81.198 231.337C79.2435 232.434 78.2273 233.323 77.4899 234.898C76.6372 236.72 76.3846 239.293 76.7241 243.111L76.7422 243.309C76.7823 243.739 76.7732 244.07 76.725 244.294L76.7145 244.339L76.7035 244.378L76.6946 244.404L76.7151 244.409C76.5849 244.384 76.3916 244.296 76.1542 244.143C75.0069 243.405 73.3447 241.506 71.7262 239.04C67.7916 233.045 65.4305 226.088 66.3092 221.421C66.8301 218.654 67.7479 216.523 69.0658 214.777C70.0797 213.434 71.2208 212.406 73.0176 211.101L73.609 210.677L74.3625 210.143C77.1859 208.14 78.5401 206.872 79.6571 204.787C81.2496 201.835 81.7108 199.381 81.3459 197.399L81.319 197.263Z" fill="#1E3A8A"/>
<path fill-rule="evenodd" clip-rule="evenodd" d="M149.605 122.408C150.059 122.399 150.434 122.759 150.442 123.21C150.45 123.645 150.114 124.007 149.683 124.04L149.491 124.048C149.438 124.051 149.375 124.056 149.301 124.061C149.018 124.083 148.701 124.119 148.358 124.172C147.381 124.323 146.406 124.581 145.504 124.968C142.457 126.274 140.974 128.652 141.764 132.628C142.283 135.185 143.567 136.613 145.503 137.195C147.074 137.667 149.017 137.565 151.118 137.038C151.559 136.928 152.005 137.193 152.116 137.631C152.227 138.069 151.96 138.513 151.52 138.624C149.156 139.216 146.934 139.333 145.027 138.76C142.506 138.002 140.79 136.094 140.152 132.948C139.2 128.161 141.134 125.061 144.853 123.467C145.894 123.02 147 122.728 148.105 122.556L148.321 122.524C148.883 122.445 149.327 122.413 149.605 122.408Z" fill="#1E3A8A"/>
<path fill-rule="evenodd" clip-rule="evenodd" d="M179.595 92.8438L179.592 92.844C166.735 93.9014 158.577 99.8626 154.278 109.107C152.781 112.327 151.848 115.763 151.371 119.241C151.063 121.492 150.979 123.456 151.026 124.981L151.035 125.241L151.045 125.427L151.045 125.46L151.046 125.507C151.072 125.962 151.471 126.312 151.934 126.274L154.862 126.036L154.888 126.069C156.708 128.419 160.879 137.615 161.923 141.841C162.034 142.292 162.498 142.557 162.941 142.434L163.347 142.303L163.526 142.247C163.978 142.106 164.512 141.949 165.124 141.78L165.609 141.648C167.247 141.207 169.106 140.769 171.165 140.357L171.574 140.276C177.322 139.149 183.581 138.429 190.191 138.302L190.644 138.294L191.131 138.307C191.465 138.318 191.837 138.33 192.24 138.346C193.361 138.391 194.528 138.452 195.687 138.532L196.288 138.575C198.738 138.757 200.779 139.004 202.188 139.315L202.337 139.349L202.31 139.699C202.271 140.165 202.224 140.679 202.167 141.236C202.058 142.301 203.651 142.492 203.8 141.432C205.353 130.388 205.713 118.326 204.349 107.914C203.382 100.592 198.903 96.1483 192.096 94.0596C189.635 93.3043 186.999 92.9017 184.304 92.7753C182.498 92.6906 180.986 92.7343 179.595 92.8438ZM184.226 94.4085C186.792 94.5289 189.295 94.911 191.611 95.6219C197.848 97.5356 201.843 101.499 202.718 108.126L202.774 108.56C203.905 117.552 203.746 127.788 202.644 137.483L202.615 137.735L202.563 137.723C200.929 137.36 198.602 137.093 195.8 136.9C194.792 136.831 193.78 136.776 192.795 136.733L192.305 136.713C191.955 136.699 191.628 136.687 191.328 136.678L190.669 136.659L190.639 136.659C183.591 136.764 176.93 137.535 170.84 138.754C168.64 139.194 166.662 139.665 164.929 140.138L164.514 140.252C164.179 140.346 163.867 140.436 163.579 140.521L163.291 140.608L163.274 140.548C161.806 135.552 157.569 126.431 155.802 124.618L155.761 124.579C155.593 124.429 155.37 124.354 155.144 124.372L152.662 124.574L152.66 124.485C152.644 123.114 152.735 121.401 153.001 119.462C153.457 116.135 154.348 112.854 155.771 109.793C159.787 101.158 167.323 95.5932 179.362 94.5051L179.725 94.4737C181.052 94.3692 182.498 94.3274 184.226 94.4085Z" fill="#1E3A8A"/>
<path fill-rule="evenodd" clip-rule="evenodd" d="M155.148 124.399L149.063 124.862C148.584 124.899 148.242 125.334 148.313 125.8L148.339 125.927L149.014 129.038L149.254 130.136C149.864 132.922 150.483 135.709 151.084 138.356L151.441 139.926L151.879 141.83C152.946 146.435 153.793 149.858 154.35 151.744L154.424 151.992C156.361 158.402 158.045 160.733 164.792 165.528C168.651 168.285 174.509 170.142 180.162 170.316C186.626 170.514 192.224 168.565 195.775 164.382C198.028 161.729 199.803 158.221 201.165 154.065C202.263 150.715 203.033 147.135 203.535 143.556C203.711 142.304 203.84 141.141 203.93 140.096L203.963 139.701C203.97 139.617 203.976 139.536 203.982 139.457L204.01 139.05L204.026 138.768C204.043 138.393 203.801 138.054 203.439 137.947C201.819 137.467 199.149 137.13 195.8 136.9C194.792 136.831 193.78 136.776 192.795 136.733L192.305 136.713C191.955 136.699 191.628 136.687 191.328 136.678L190.669 136.659L190.639 136.659C183.591 136.764 176.93 137.535 170.84 138.754C168.64 139.194 166.662 139.665 164.929 140.138L164.514 140.252C164.179 140.346 163.867 140.436 163.579 140.521L163.291 140.608L163.273 140.546C161.803 135.539 157.563 126.424 155.797 124.641C155.627 124.469 155.39 124.381 155.148 124.399ZM154.863 126.061L154.891 126.095C156.704 128.416 160.876 137.606 161.923 141.841C162.034 142.292 162.498 142.557 162.941 142.434L163.347 142.303L163.526 142.247C163.978 142.106 164.512 141.949 165.124 141.78L165.609 141.648C167.247 141.207 169.106 140.769 171.165 140.357L171.574 140.276C177.322 139.149 183.581 138.429 190.191 138.302L190.644 138.294L191.131 138.307C191.465 138.318 191.837 138.33 192.24 138.346C193.361 138.391 194.528 138.452 195.687 138.532L196.288 138.575C198.738 138.757 200.779 139.004 202.188 139.315L202.341 139.35L202.314 139.698C202.307 139.781 202.3 139.867 202.292 139.956C202.204 140.973 202.078 142.108 201.906 143.33C201.417 146.821 200.666 150.31 199.601 153.558C198.3 157.53 196.616 160.857 194.518 163.327C191.328 167.085 186.215 168.866 180.213 168.682C174.949 168.52 169.486 166.808 165.897 164.303L165.75 164.199C159.425 159.704 157.892 157.666 156.108 151.88L155.951 151.361C155.375 149.427 154.454 145.684 153.286 140.615L152.963 139.206L152.688 137.997C152.227 135.963 151.755 133.848 151.284 131.713L150.563 128.427L150.128 126.421L154.863 126.061Z" fill="#1E3A8A"/>
<path fill-rule="evenodd" clip-rule="evenodd" d="M149.209 128.13C149.209 128.13 145.591 121.127 143.699 113.224C141.89 105.785 145.371 97.9915 152.306 94.6398C158.117 91.8603 162.42 94.0403 162.42 94.0403C162.42 94.0403 156.253 83.6308 165.49 74.4203C168.751 71.1775 173.246 69.379 177.851 69.5153C189.116 69.8423 192.625 79.3253 192.625 79.3253C192.625 79.3253 204.685 57.28 229.435 70.3328C231.929 71.6408 234.753 75.3195 236.096 77.7993C244.264 92.7868 217.32 110.527 203.314 111.916C187.91 113.47 178.893 110.908 173.932 107.175C177.604 109.382 172.123 131.645 149.209 128.13Z" fill="#1E3A8A"/>
<path fill-rule="evenodd" clip-rule="evenodd" d="M180.334 147.873C180.914 147.779 181.461 148.156 181.582 148.721L181.601 148.821C181.617 148.902 181.651 149.038 181.704 149.211C181.815 149.569 181.968 149.927 182.165 150.253C182.79 151.289 183.67 151.772 185.061 151.527C185.657 151.422 186.226 151.818 186.331 152.411C186.437 153.003 186.039 153.569 185.443 153.674C183.084 154.089 181.347 153.136 180.284 151.374C179.989 150.885 179.768 150.368 179.609 149.853C179.511 149.539 179.454 149.287 179.428 149.124C179.331 148.53 179.736 147.97 180.334 147.873Z" fill="#1E3A8A"/>
<path fill-rule="evenodd" clip-rule="evenodd" d="M191.706 130.044C192.29 129.979 192.818 130.381 192.912 130.951L192.919 131.005L194.564 145.42C194.648 146.162 193.976 146.762 193.25 146.61L193.2 146.598L188.102 145.29C187.516 145.14 187.163 144.545 187.315 143.962C187.461 143.398 188.027 143.051 188.595 143.167L188.65 143.179L192.205 144.091L190.74 131.25C190.674 130.67 191.079 130.145 191.652 130.052L191.706 130.044Z" fill="#1E3A8A"/>
<path fill-rule="evenodd" clip-rule="evenodd" d="M197.449 133.662C198.266 133.662 198.929 132.637 198.929 131.373C198.929 130.109 198.266 129.084 197.449 129.084C196.631 129.084 195.969 130.109 195.969 131.373C195.969 132.637 196.631 133.662 197.449 133.662Z" fill="#1E3A8A"/>
<path fill-rule="evenodd" clip-rule="evenodd" d="M183.141 133.417C183.959 133.417 184.621 132.392 184.621 131.128C184.621 129.863 183.959 128.839 183.141 128.839C182.324 128.839 181.661 129.863 181.661 131.128C181.661 132.392 182.324 133.417 183.141 133.417Z" fill="#1E3A8A"/>
<path fill-rule="evenodd" clip-rule="evenodd" d="M177.136 118.367C178.754 117.188 180.735 116.602 183.029 116.942C183.628 117.031 184.041 117.586 183.951 118.181C183.862 118.777 183.304 119.187 182.705 119.098C181.024 118.849 179.61 119.267 178.431 120.126C178.099 120.368 177.812 120.627 177.574 120.884L177.499 120.967C177.419 121.057 177.364 121.125 177.335 121.164L177.325 121.179C176.978 121.672 176.295 121.793 175.798 121.448C175.302 121.104 175.18 120.424 175.527 119.93L175.579 119.859C175.666 119.743 175.793 119.589 175.961 119.407C176.291 119.051 176.682 118.697 177.136 118.367Z" fill="#1E3A8A"/>
<path fill-rule="evenodd" clip-rule="evenodd" d="M196.759 116.618C197.637 116.481 198.569 116.477 199.475 116.7C201.024 117.08 202.199 118.075 202.717 119.742C202.896 120.317 202.572 120.928 201.993 121.105C201.433 121.278 200.839 120.981 200.64 120.439L200.622 120.386C200.345 119.493 199.788 119.022 198.949 118.816C198.368 118.673 197.712 118.676 197.098 118.772L196.96 118.795C196.906 118.805 196.863 118.814 196.831 118.821L196.793 118.83C196.207 118.981 195.608 118.632 195.456 118.049C195.303 117.467 195.655 116.872 196.241 116.72L196.324 116.7C196.433 116.675 196.58 116.646 196.759 116.618Z" fill="#1E3A8A"/>
<path fill-rule="evenodd" clip-rule="evenodd" d="M362.836 282.965C363.29 282.965 363.658 283.331 363.658 283.782C363.658 284.217 363.315 284.573 362.884 284.598L362.836 284.599H16.1644C15.7103 284.599 15.3422 284.233 15.3422 283.782C15.3422 283.347 15.6845 282.991 16.1161 282.966L16.1644 282.965H362.836Z" fill="#1E3A8A"/>
<defs>
<linearGradient id="paint0_linear" x1="1.73017" y1="16.7301" x2="1.73017" y2="100.552" gradientUnits="userSpaceOnUse">
<stop stop-color="white"/>
<stop offset="0.774017" stop-color="#EAEAEA"/>
<stop offset="1" stop-color="#DFDFDF"/>
</linearGradient>
<linearGradient id="paint1_linear" x1="325" y1="278" x2="325" y2="319" gradientUnits="userSpaceOnUse">
<stop stop-color="white"/>
<stop offset="0.774017" stop-color="#EAEAEA"/>
<stop offset="1" stop-color="#DFDFDF"/>
</linearGradient>
</defs>
</svg>
