<svg width="64" height="30" viewBox="0 0 64 30" fill="none" xmlns="http://www.w3.org/2000/svg">
<path d="M14.5 18.9055C14.5 17.9263 14.1569 17.1774 13.4706 16.659C12.7843 16.129 11.549 15.576 9.76471 15C7.98039 14.4124 6.56781 13.8364 5.52696 13.2719C2.69036 11.7281 1.27206 9.64862 1.27206 7.03341C1.27206 5.67396 1.64951 4.46429 2.40441 3.40438C3.17075 2.33295 4.26307 1.4977 5.68137 0.898618C7.11111 0.299539 8.71242 0 10.4853 0C12.2696 0 13.8595 0.328341 15.2549 0.985023C16.6503 1.63018 17.7312 2.54608 18.4975 3.73272C19.2753 4.91935 19.6642 6.26728 19.6642 7.7765H14.5172C14.5172 6.62442 14.1569 5.73157 13.4363 5.09793C12.7157 4.45276 11.7034 4.13018 10.3995 4.13018C9.14134 4.13018 8.1634 4.40092 7.46569 4.9424C6.76797 5.47235 6.41912 6.17512 6.41912 7.05069C6.41912 7.86866 6.82516 8.55415 7.63726 9.10714C8.46078 9.66014 9.66748 10.1786 11.2574 10.6624C14.1855 11.5495 16.3186 12.6498 17.6569 13.9631C18.9951 15.2765 19.6642 16.9124 19.6642 18.871C19.6642 21.0484 18.8464 22.7592 17.2108 24.0035C15.5752 25.2362 13.3734 25.8525 10.6054 25.8525C8.68382 25.8525 6.93382 25.5012 5.35539 24.7984C3.77696 24.0841 2.57026 23.1106 1.73529 21.8779C0.911765 20.6452 0.5 19.2166 0.5 17.5922H5.66422C5.66422 20.3687 7.31127 21.7569 10.6054 21.7569C11.8292 21.7569 12.7843 21.5092 13.4706 21.0138C14.1569 20.5069 14.5 19.8041 14.5 18.9055Z" fill="#F97316"/>
<path d="M43.6495 13.4965C43.6495 15.8468 43.2721 17.8917 42.5172 19.6313C41.7623 21.3594 40.7157 22.7477 39.3775 23.7961L43.5294 27.0795L40.2525 30L34.9338 25.697C34.3276 25.8007 33.6985 25.8525 33.0466 25.8525C30.9763 25.8525 29.1291 25.3514 27.5049 24.3491C25.8807 23.3468 24.6226 21.9182 23.7304 20.0634C22.8382 18.197 22.3864 16.0541 22.375 13.6348V12.3906C22.375 9.91359 22.8154 7.73618 23.6961 5.85829C24.5882 3.96889 25.8407 2.52304 27.4534 1.52074C29.0776 0.506912 30.9306 0 33.0123 0C35.094 0 36.9412 0.506912 38.5539 1.52074C40.1781 2.52304 41.4306 3.96889 42.3113 5.85829C43.2034 7.73618 43.6495 9.90783 43.6495 12.3733V13.4965ZM38.4338 12.356C38.4338 9.71774 37.9649 7.71313 37.027 6.34217C36.0891 4.9712 34.7508 4.28571 33.0123 4.28571C31.2851 4.28571 29.9526 4.96544 29.0147 6.32488C28.0768 7.67281 27.6021 9.65438 27.5907 12.2696V13.4965C27.5907 16.0657 28.0596 18.0588 28.9976 19.4758C29.9355 20.8929 31.2851 21.6014 33.0466 21.6014C34.7737 21.6014 36.1005 20.9217 37.027 19.5622C37.9534 18.1912 38.4224 16.1982 38.4338 13.5829V12.356Z" fill="#F97316"/>
<path d="M52.5711 21.3422H63.5V25.5069H47.424V0.345622H52.5711V21.3422Z" fill="#F97316"/>
</svg>
