<svg width="87" height="82" viewBox="0 0 87 82" fill="none" xmlns="http://www.w3.org/2000/svg">
<path d="M61.3217 20.4373L72.0533 49.3581" stroke="#C4C4C4" stroke-width="2"/>
<circle cx="72.7445" cy="51.384" r="1.20067" transform="rotate(27.895 72.7445 51.384)" stroke="#C4C4C4" stroke-width="2"/>
<circle cx="60.7114" cy="18.4541" r="1.20067" transform="rotate(27.895 60.7114 18.4541)" stroke="#C4C4C4" stroke-width="2"/>
<path d="M10.575 37.7422L10.4697 35.745C9.48069 35.7971 8.6788 36.5652 8.58415 37.551C8.48949 38.5369 9.13058 39.4435 10.0916 39.6829L10.575 37.7422ZM61.8149 35.0404L63.2366 36.4471L66.8736 32.7709L61.7096 33.0432L61.8149 35.0404ZM31.0228 66.1639L29.1266 65.5279C28.8308 66.4098 29.1821 67.3793 29.9743 67.867C30.7665 68.3547 31.7903 68.2318 32.4445 67.5705L31.0228 66.1639ZM38.244 44.6343L40.1402 45.2703L40.8289 43.2171L38.7274 42.6936L38.244 44.6343ZM10.6803 39.7394L61.9202 37.0377L61.7096 33.0432L10.4697 35.745L10.6803 39.7394ZM60.3931 33.6338L29.601 64.7573L32.4445 67.5705L63.2366 36.4471L60.3931 33.6338ZM32.919 66.7999L40.1402 45.2703L36.3478 43.9983L29.1266 65.5279L32.919 66.7999ZM38.7274 42.6936L11.0584 35.8015L10.0916 39.6829L37.7606 46.575L38.7274 42.6936Z" fill="#F97316"/>
</svg>
